<?xml version="1.0" standalone="no"?>
<!DOCTYPE svg PUBLIC "-//W3C//DTD SVG 20010904//EN"
 "http://www.w3.org/TR/2001/REC-SVG-20010904/DTD/svg10.dtd">
<svg version="1.0" xmlns="http://www.w3.org/2000/svg"
 width="621.000000pt" height="154.000000pt" viewBox="0 0 621.000000 154.000000"
 preserveAspectRatio="xMidYMid meet">

<g transform="translate(0.000000,154.000000) scale(0.100000,-0.100000)"
fill="#000000" stroke="none">
<path d="M191 1468 c-141 -190 -159 -413 -49 -608 57 -102 128 -159 128 -103
0 9 -16 33 -35 54 -152 169 -151 449 3 636 34 43 37 73 8 73 -9 0 -33 -24 -55
-52z"/>
<path d="M963 1504 c-3 -9 5 -26 20 -42 44 -47 87 -125 109 -196 17 -56 20
-85 16 -165 -7 -118 -31 -188 -100 -278 -48 -64 -56 -98 -21 -91 27 5 108 118
133 185 12 32 29 91 38 131 15 67 14 80 -1 160 -19 99 -67 206 -122 270 -38
44 -62 53 -72 26z"/>
<path d="M306 1375 c-15 -19 -39 -61 -54 -93 -24 -50 -27 -69 -26 -157 0 -85
4 -108 26 -156 28 -62 83 -129 104 -129 29 0 26 30 -6 67 -57 65 -75 117 -75
218 0 100 18 153 75 226 17 21 29 43 25 49 -12 20 -43 9 -69 -25z"/>
<path d="M860 1394 c0 -9 14 -34 31 -55 48 -61 69 -127 69 -217 0 -83 -22
-147 -75 -216 -30 -39 -32 -66 -6 -66 26 0 87 85 112 157 17 47 20 75 16 148
-4 99 -25 160 -78 226 -31 40 -69 52 -69 23z"/>
<path d="M426 1283 c-50 -53 -69 -154 -44 -235 14 -47 70 -114 86 -104 19 12
14 35 -15 73 -25 32 -28 45 -28 108 0 63 4 77 29 113 43 63 21 98 -28 45z"/>
<path d="M754 1295 c-4 -8 0 -23 9 -33 59 -68 67 -165 18 -243 -33 -54 -36
-64 -21 -74 19 -12 49 16 75 70 24 48 27 64 23 129 -3 64 -8 81 -34 118 -32
46 -60 59 -70 33z"/>
<path d="M584 1220 c-65 -27 -84 -112 -35 -161 72 -72 192 1 161 97 -18 52
-79 84 -126 64z"/>
<path d="M460 727 c-46 -144 -114 -354 -152 -467 -58 -178 -65 -207 -53 -220
20 -19 30 -7 53 60 l19 55 289 0 289 0 21 -60 c21 -59 48 -82 60 -52 4 12
-288 932 -300 945 -3 2 -14 1 -26 -3 -14 -4 -19 -12 -16 -22 3 -8 9 -26 12
-39 6 -22 3 -24 -33 -24 -50 0 -54 4 -41 42 11 30 1 48 -27 48 -5 0 -48 -118
-95 -263z m224 115 c3 -5 -10 -24 -29 -42 l-34 -33 -36 27 c-54 42 -47 56 29
56 36 0 67 -4 70 -8z m-131 -86 c25 -19 21 -31 -22 -65 l-38 -30 16 54 c9 30
18 55 21 55 3 -1 13 -7 23 -14z m172 -38 c8 -28 14 -52 12 -54 -1 -1 -20 13
-41 32 -38 33 -39 34 -21 54 10 11 22 20 26 20 5 0 15 -23 24 -52z m-26 -90
l52 -47 -33 -29 c-98 -86 -96 -85 -121 -69 -12 9 -42 34 -67 56 l-45 41 65 59
c72 67 62 67 149 -11z m-182 -144 c30 -26 53 -50 51 -54 -4 -10 -193 -170
-201 -170 -4 0 57 204 77 255 8 22 13 20 73 -31z m312 -85 c23 -72 40 -134 37
-136 -2 -3 -49 32 -103 78 -54 46 -100 85 -103 87 -7 5 102 101 116 102 5 0
29 -59 53 -131z m-91 -99 l100 -85 -109 -3 c-60 -1 -159 -1 -221 0 l-112 3
109 92 c63 53 114 89 120 85 7 -4 57 -45 113 -92z"/>
<path d="M4207 714 c-4 -4 -7 -113 -7 -241 l0 -234 38 3 37 3 0 235 0 235 -30
3 c-17 2 -34 0 -38 -4z"/>
<path d="M5002 698 c-17 -17 -15 -65 4 -72 39 -15 84 6 84 39 0 36 -62 59 -88
33z"/>
<path d="M3543 681 c-71 -33 -95 -116 -50 -181 13 -19 50 -47 92 -69 59 -30
71 -41 73 -64 8 -64 -68 -88 -149 -47 -34 18 -40 19 -45 5 -11 -26 5 -61 32
-74 79 -36 174 -21 223 34 26 30 31 44 31 85 0 41 -5 55 -30 84 -17 18 -49 42
-73 51 -77 31 -106 75 -71 109 19 20 64 20 110 1 31 -13 36 -13 41 0 13 35 -6
62 -51 74 -61 15 -84 14 -133 -8z"/>
<path d="M1175 678 c-3 -8 -4 -108 -3 -223 l3 -210 40 0 40 0 3 87 3 87 72 3
72 3 0 30 0 30 -72 3 -73 3 0 64 0 64 78 3 77 3 0 30 0 30 -118 3 c-89 2 -119
0 -122 -10z"/>
<path d="M2117 644 c-4 -4 -7 -22 -7 -41 0 -29 -3 -33 -25 -33 -22 0 -25 -4
-25 -35 0 -31 3 -35 25 -35 l25 0 0 -104 c0 -88 3 -107 20 -129 23 -29 66 -42
110 -32 26 6 30 11 30 39 0 31 -2 33 -27 28 -41 -8 -53 19 -53 115 l0 83 40 0
c39 0 40 1 40 35 0 34 -1 35 -39 35 -39 0 -40 1 -43 38 -3 33 -6 37 -33 40
-17 2 -34 0 -38 -4z"/>
<path d="M3097 644 c-4 -4 -7 -22 -7 -41 0 -29 -3 -33 -25 -33 -22 0 -25 -4
-25 -35 0 -31 3 -35 25 -35 l25 0 0 -104 c0 -88 3 -107 20 -129 23 -29 66 -42
110 -32 26 6 30 11 30 39 0 31 -2 33 -27 28 -41 -8 -53 19 -53 115 l0 83 40 0
c39 0 40 1 40 35 0 34 -1 35 -39 35 -39 0 -40 1 -43 38 -3 33 -6 37 -33 40
-17 2 -34 0 -38 -4z"/>
<path d="M4777 643 c-4 -3 -7 -21 -7 -40 0 -29 -3 -33 -25 -33 -22 0 -25 -4
-25 -35 0 -31 3 -35 25 -35 l25 0 0 -104 c0 -88 3 -107 20 -129 23 -29 66 -42
110 -32 26 6 30 11 30 39 0 30 -2 32 -30 28 -25 -4 -31 0 -40 23 -5 14 -10 60
-10 101 l0 74 75 0 74 0 3 -127 3 -128 35 0 35 0 0 160 0 160 -112 3 -113 3 0
39 c0 39 -1 40 -33 40 -19 0 -37 -3 -40 -7z"/>
<path d="M1526 565 c-41 -14 -56 -29 -56 -57 0 -26 14 -29 54 -13 43 18 98 19
114 3 7 -7 12 -22 12 -35 0 -19 -5 -23 -32 -23 -55 -1 -109 -17 -134 -41 -34
-32 -34 -100 0 -134 43 -43 92 -42 179 3 4 2 7 -4 7 -13 0 -12 8 -16 33 -13
l32 3 0 130 c0 108 -3 136 -17 157 -30 45 -117 60 -192 33z m124 -214 c0 -20
-8 -35 -22 -45 -43 -30 -88 -15 -88 31 0 28 24 42 73 43 34 0 37 -2 37 -29z"/>
<path d="M1885 572 c-51 -18 -75 -50 -75 -99 0 -41 19 -63 81 -92 62 -30 79
-52 60 -75 -17 -20 -67 -20 -105 -1 -38 20 -38 20 -34 -17 2 -27 9 -35 40 -46
86 -33 188 17 188 91 0 46 -25 75 -91 106 -38 18 -55 33 -57 48 -5 34 51 43
111 18 14 -6 17 -2 17 23 0 17 -4 34 -10 37 -16 10 -103 15 -125 7z"/>
<path d="M2490 573 c-8 -3 -27 -14 -41 -24 -26 -18 -27 -18 -32 1 -4 15 -14
20 -36 20 l-31 0 0 -166 0 -165 38 3 37 3 3 107 c3 102 4 108 29 128 29 23 68
26 80 8 4 -7 10 -65 13 -128 l5 -115 40 0 40 0 3 108 c3 134 -8 181 -51 207
-31 20 -67 24 -97 13z"/>
<path d="M2815 573 c-66 -17 -105 -82 -105 -175 0 -112 50 -163 160 -163 98 1
120 9 120 46 0 26 -3 30 -17 24 -10 -4 -43 -10 -73 -12 -63 -6 -94 12 -106 60
l-6 27 105 0 c120 0 125 4 112 80 -15 88 -97 136 -190 113z m89 -69 c9 -8 16
-19 16 -24 0 -5 3 -15 6 -24 5 -14 -4 -16 -66 -16 -69 0 -71 1 -64 23 16 54
74 76 108 41z"/>
<path d="M3909 571 c-78 -25 -109 -75 -109 -173 0 -110 50 -163 155 -163 112
0 165 55 165 173 0 77 -21 127 -62 148 -36 18 -114 26 -149 15z m100 -80 c47
-47 33 -166 -21 -185 -18 -6 -38 -6 -55 0 -53 18 -67 140 -22 185 25 25 74 24
98 0z"/>
<path d="M5259 571 c-78 -25 -109 -75 -109 -173 0 -110 50 -163 155 -163 112
0 165 55 165 173 0 77 -21 127 -62 148 -36 18 -114 26 -149 15z m100 -80 c47
-47 33 -166 -21 -185 -18 -6 -38 -6 -55 0 -53 18 -67 140 -22 185 25 25 74 24
98 0z"/>
<path d="M5690 573 c-8 -3 -27 -14 -41 -24 -26 -18 -27 -18 -32 1 -4 15 -14
20 -36 20 l-31 0 0 -166 0 -165 38 3 37 3 3 107 c3 102 4 108 29 128 29 23 68
26 80 8 4 -7 10 -65 13 -128 l5 -115 40 0 40 0 3 108 c3 134 -8 181 -51 207
-31 20 -67 24 -97 13z"/>
<path d="M5985 572 c-51 -18 -75 -50 -75 -99 0 -41 19 -63 81 -92 62 -30 79
-52 60 -75 -17 -20 -67 -20 -105 -1 -38 20 -38 20 -34 -17 2 -27 9 -35 40 -46
86 -33 188 17 188 91 0 46 -25 75 -91 106 -38 18 -55 33 -57 48 -5 34 51 43
111 18 14 -6 17 -2 17 23 0 17 -4 34 -10 37 -16 10 -103 15 -125 7z"/>
<path d="M4374 555 c-11 -27 1 -248 14 -272 30 -55 112 -66 171 -24 l29 21 5
-21 c4 -16 12 -20 39 -17 l33 3 0 160 0 160 -40 0 -40 0 -3 -105 c-2 -91 -6
-108 -24 -127 -23 -24 -53 -29 -78 -13 -11 7 -16 37 -20 127 l-5 118 -38 3
c-27 2 -39 -1 -43 -13z"/>
</g>
</svg>
