<?xml version="1.0" standalone="no"?>
<!DOCTYPE svg PUBLIC "-//W3C//DTD SVG 20010904//EN"
 "http://www.w3.org/TR/2001/REC-SVG-20010904/DTD/svg10.dtd">
<svg version="1.0" xmlns="http://www.w3.org/2000/svg"
 width="621.000000pt" height="154.000000pt" viewBox="0 0 621.000000 154.000000"
 preserveAspectRatio="xMidYMid meet">

<g transform="translate(0.000000,154.000000) scale(0.100000,-0.100000)"
fill="#000000" stroke="none">
<path d="M766 1448 c-14 -20 -16 -79 -16 -465 0 -507 -10 -463 100 -463 104 0
100 -7 100 200 l0 179 152 3 152 3 9 36 c5 20 4 51 0 70 l-9 34 -152 3 -152 3
0 129 0 130 162 2 162 3 8 38 c4 20 4 54 0 75 l-8 37 -246 3 c-246 2 -247 2
-262 -20z"/>
<path d="M5030 1305 l0 -105 -45 0 -45 0 0 -75 0 -75 45 0 45 0 0 -162 c0
-328 15 -349 253 -356 l137 -4 0 90 0 89 -51 5 c-28 3 -55 12 -60 19 -5 8 -9
83 -9 167 l0 152 60 0 60 0 0 75 0 75 -60 0 -60 0 0 105 0 105 -135 0 -135 0
0 -105z m240 -30 l0 -105 60 0 60 0 0 -45 0 -45 -60 0 -60 0 0 -178 c0 -205 2
-211 73 -219 l47 -6 0 -58 0 -59 -91 0 c-107 0 -170 14 -198 44 -31 33 -41
109 -41 302 l0 174 -45 0 -45 0 0 45 0 45 45 0 45 0 0 105 0 105 105 0 105 0
0 -105z"/>
<path d="M2758 1389 c-15 -8 -18 -24 -18 -89 l0 -79 -47 -3 -48 -3 0 -70 0
-70 46 -3 47 -3 4 -212 c5 -234 11 -262 67 -310 53 -44 150 -60 233 -37 45 13
58 34 58 92 0 59 -10 71 -44 58 -47 -18 -83 -12 -105 16 -20 25 -21 40 -21
210 l0 184 75 0 c84 0 95 9 95 75 0 66 -11 75 -95 75 l-75 0 0 80 c0 68 -3 81
-19 90 -25 13 -131 13 -153 -1z"/>
<path d="M1550 1230 c-24 -6 -69 -22 -100 -37 -55 -28 -55 -28 -58 -79 -4 -76
10 -83 95 -49 116 46 230 44 261 -6 7 -11 16 -43 19 -70 l6 -49 -75 0 c-210 0
-329 -68 -344 -196 -17 -140 83 -244 233 -244 59 0 108 18 158 55 25 19 47 35
49 35 3 0 6 -15 8 -32 3 -32 5 -33 52 -36 27 -2 60 -1 73 3 l24 6 -3 272 c-3
268 -3 273 -28 322 -21 42 -35 55 -83 79 -49 24 -72 29 -150 32 -51 2 -112 -1
-137 -6z m220 -463 c0 -47 -4 -57 -32 -84 -68 -64 -131 -72 -180 -23 -26 27
-30 36 -25 67 11 68 53 91 170 92 l67 1 0 -53z"/>
<path d="M2285 1233 c-119 -26 -185 -100 -185 -208 0 -106 49 -161 198 -220
78 -31 112 -59 112 -92 0 -86 -107 -107 -240 -47 -33 15 -63 24 -66 21 -3 -3
-8 -23 -11 -44 -13 -98 50 -138 217 -137 75 0 115 5 141 17 90 41 138 112 139
205 0 105 -49 157 -211 222 -91 37 -118 65 -103 108 20 57 98 67 200 26 36
-14 68 -23 72 -19 3 3 6 31 6 62 0 64 -10 75 -88 98 -47 14 -136 18 -181 8z"/>
<path d="M3710 1211 c-50 -16 -96 -45 -127 -79 l-33 -36 0 52 0 52 -120 0
-120 0 0 -330 0 -330 130 0 130 0 0 168 c1 200 9 248 45 279 36 31 88 31 120
-2 25 -24 25 -24 25 -235 l0 -210 136 0 136 0 -4 248 -4 248 -29 60 c-41 80
-97 115 -192 120 -38 2 -79 0 -93 -5z m141 -32 c55 -19 100 -58 122 -108 19
-41 21 -70 25 -273 l4 -228 -106 0 -106 0 0 191 c0 209 -8 246 -56 268 -36 16
-91 14 -124 -5 -53 -32 -62 -71 -68 -271 l-5 -183 -98 0 -99 0 0 300 0 300 90
0 90 0 0 -71 0 -70 63 64 c87 88 176 116 268 86z"/>
<path d="M4382 1204 c-29 -7 -66 -21 -83 -30 -47 -24 -112 -93 -139 -149 -21
-43 -25 -64 -25 -155 0 -80 5 -117 19 -155 27 -69 93 -136 169 -171 57 -26 72
-29 177 -29 183 0 290 48 344 157 l27 53 -128 3 c-124 3 -127 2 -150 -23 -59
-63 -160 -38 -192 48 -23 59 -33 57 240 57 l251 0 -6 58 c-17 139 -65 231
-150 288 -92 60 -236 80 -354 48z m286 -44 c101 -44 169 -143 187 -272 l6 -48
-250 0 -251 0 0 -27 c0 -49 21 -106 49 -134 49 -49 145 -51 195 -4 25 23 35
25 122 25 66 0 94 -4 94 -12 0 -6 -22 -33 -49 -59 -68 -65 -126 -84 -266 -84
-98 0 -116 3 -165 26 -119 56 -171 134 -178 265 -7 140 39 240 143 304 88 54
261 64 363 20z"/>
<path d="M4445 1080 c-42 -17 -85 -83 -85 -131 0 -18 8 -19 146 -19 l147 0 -6
40 c-7 54 -31 88 -72 106 -37 15 -98 17 -130 4z m125 -35 c31 -16 50 -43 50
-69 0 -14 -17 -16 -115 -16 -66 0 -115 4 -115 10 0 68 107 113 180 75z"/>
<path d="M3880 305 l0 -196 33 3 32 3 0 190 0 190 -32 3 -33 3 0 -196z"/>
<path d="M3343 479 c-42 -12 -63 -44 -63 -95 0 -50 28 -90 79 -111 49 -20 71
-42 71 -69 0 -42 -69 -58 -120 -29 -36 20 -40 19 -40 -15 0 -33 18 -46 76 -55
86 -14 157 38 157 115 0 49 -27 81 -92 113 -54 26 -71 49 -55 75 15 23 56 27
93 7 l31 -16 0 35 c0 29 -4 36 -31 45 -37 13 -62 13 -106 0z"/>
<path d="M4530 475 c-20 -24 0 -50 36 -50 26 0 29 4 29 30 0 25 -4 31 -26 33
-15 2 -31 -4 -39 -13z"/>
<path d="M4347 444 c-4 -4 -7 -20 -7 -36 0 -21 -5 -28 -20 -28 -16 0 -20 -7
-20 -30 0 -23 4 -30 20 -30 18 0 20 -7 20 -85 0 -78 2 -88 25 -110 38 -39 105
-32 105 10 0 18 -6 24 -27 27 -28 3 -28 4 -31 81 l-3 77 55 0 55 0 3 -102 3
-103 33 -3 32 -3 0 135 0 136 -89 0 -90 0 -3 33 c-2 26 -8 33 -28 35 -14 2
-29 0 -33 -4z"/>
<path d="M3620 377 c-41 -14 -80 -80 -80 -137 0 -76 61 -140 135 -140 46 0 98
31 117 70 33 65 16 168 -32 198 -30 19 -100 24 -140 9z m100 -62 c17 -21 23
-85 11 -117 -12 -32 -51 -46 -86 -30 -41 19 -46 109 -9 146 19 20 68 21 84 1z"/>
<path d="M4730 377 c-41 -14 -80 -80 -80 -137 0 -76 61 -140 135 -140 46 0 98
31 117 70 33 65 16 168 -32 198 -30 19 -100 24 -140 9z m100 -62 c17 -21 23
-85 11 -117 -12 -32 -51 -46 -86 -30 -41 19 -46 109 -9 146 19 20 68 21 84 1z"/>
<path d="M5082 370 c-39 -24 -42 -24 -42 -5 0 9 -9 15 -25 15 l-25 0 0 -136 0
-135 33 3 32 3 3 90 c3 98 16 125 59 125 33 0 43 -33 43 -136 l0 -85 33 3 c32
3 32 3 35 63 5 84 -6 161 -26 185 -25 31 -80 35 -120 10z"/>
<path d="M5330 378 c-65 -35 -61 -109 9 -145 64 -33 72 -42 60 -65 -9 -16 -18
-19 -47 -16 -21 3 -45 8 -55 13 -16 7 -18 4 -15 -21 2 -22 10 -30 38 -37 76
-19 150 18 150 75 0 45 -16 66 -71 89 -40 18 -49 26 -47 43 2 17 10 21 38 20
19 0 43 -4 53 -8 14 -7 17 -3 17 17 0 14 -4 28 -9 31 -22 14 -97 16 -121 4z"/>
<path d="M4020 267 c0 -129 9 -152 65 -163 26 -5 44 -1 70 15 43 25 45 25 45
6 0 -9 9 -15 25 -15 l25 0 0 135 0 135 -30 0 -30 0 0 -88 c0 -80 -2 -91 -23
-110 -56 -53 -87 -13 -87 110 l0 88 -30 0 -30 0 0 -113z"/>
<path d="M800 245 c0 -51 3 -65 15 -65 12 0 15 14 15 65 0 51 -3 65 -15 65
-12 0 -15 -14 -15 -65z"/>
<path d="M1635 299 c-4 -6 -5 -13 -2 -16 7 -7 27 6 27 18 0 12 -17 12 -25 -2z"/>
<path d="M1890 286 c0 -19 -4 -23 -20 -19 -14 4 -23 -2 -32 -22 -16 -36 0 -60
41 -60 l31 -1 0 63 c0 35 -4 63 -10 63 -5 0 -10 -11 -10 -24z m-5 -61 c0 -10
-6 -20 -12 -22 -8 -3 -13 5 -13 22 0 17 5 25 13 23 6 -3 12 -13 12 -23z"/>
<path d="M2450 285 c0 -18 -4 -23 -15 -19 -21 8 -45 -14 -45 -41 0 -29 18 -43
53 -43 27 0 27 1 27 64 0 36 -4 64 -10 64 -5 0 -10 -11 -10 -25z m-3 -51 c8
-21 -13 -42 -28 -27 -13 13 -5 43 11 43 6 0 13 -7 17 -16z"/>
<path d="M730 240 l0 -60 30 0 c17 0 30 5 30 10 0 6 -9 10 -20 10 -17 0 -20 7
-20 50 0 28 -4 50 -10 50 -6 0 -10 -27 -10 -60z"/>
<path d="M1490 240 c0 -47 3 -60 15 -60 9 0 15 9 15 25 0 14 4 25 8 25 5 0 14
-11 20 -25 6 -14 16 -25 22 -25 13 0 13 6 0 31 -7 12 -7 25 -1 36 16 29 -5 53
-44 53 l-35 0 0 -60z m60 25 c0 -8 -7 -15 -15 -15 -8 0 -15 7 -15 15 0 8 7 15
15 15 8 0 15 -7 15 -15z"/>
<path d="M1790 290 c0 -5 5 -10 10 -10 6 0 10 5 10 10 0 6 -4 10 -10 10 -5 0
-10 -4 -10 -10z"/>
<path d="M2210 290 c0 -5 7 -10 15 -10 11 0 15 -12 15 -50 0 -27 5 -50 10 -50
6 0 10 23 10 50 0 43 3 50 20 50 11 0 20 5 20 10 0 6 -20 10 -45 10 -25 0 -45
-4 -45 -10z"/>
<path d="M2710 240 c0 -33 4 -60 10 -60 6 0 10 9 10 19 0 12 9 21 24 25 29 7
43 41 26 61 -7 8 -25 15 -41 15 -29 0 -29 -1 -29 -60z m50 20 c0 -11 -7 -20
-15 -20 -8 0 -15 9 -15 20 0 11 7 20 15 20 8 0 15 -9 15 -20z"/>
<path d="M2956 275 c-3 -8 -4 -21 -2 -27 3 -7 7 -25 10 -40 4 -19 13 -28 26
-28 11 0 20 5 20 10 0 6 -4 10 -10 10 -14 0 -12 48 2 52 9 3 8 9 -4 21 -21 21
-34 22 -42 2z"/>
<path d="M863 264 c-7 -3 -13 -21 -13 -40 0 -27 5 -35 24 -40 25 -6 46 1 46
15 0 5 -11 6 -25 3 -15 -2 -25 0 -25 7 0 6 12 11 26 11 21 0 25 4 22 23 -3 22
-29 32 -55 21z m34 -20 c-3 -3 -12 -4 -19 -1 -8 3 -5 6 6 6 11 1 17 -2 13 -5z"/>
<path d="M952 261 c-9 -5 -12 -25 -10 -57 3 -44 5 -49 29 -52 27 -3 55 20 44
38 -3 5 -18 11 -33 11 -24 2 -25 2 -4 6 19 4 42 36 42 59 0 7 -55 4 -68 -5z
m38 -21 c0 -5 -7 -10 -15 -10 -8 0 -15 5 -15 10 0 6 7 10 15 10 8 0 15 -4 15
-10z m-3 -66 c-3 -3 -12 -4 -19 -1 -8 3 -5 6 6 6 11 1 17 -2 13 -5z"/>
<path d="M1037 264 c-13 -14 -7 -21 16 -19 12 1 14 0 5 -2 -52 -13 -41 -62 13
-61 29 1 30 3 27 42 -3 35 -6 41 -28 44 -14 2 -29 0 -33 -4z m38 -54 c-3 -5
-10 -10 -16 -10 -5 0 -9 5 -9 10 0 6 7 10 16 10 8 0 12 -4 9 -10z"/>
<path d="M1120 224 c0 -51 17 -60 22 -11 2 20 8 32 18 32 10 0 16 -12 18 -32
4 -42 20 -43 24 -1 4 46 28 49 28 4 0 -20 5 -36 11 -36 6 0 9 17 7 43 l-3 42
-62 1 -63 2 0 -44z"/>
<path d="M1282 258 c-17 -17 -15 -53 3 -68 20 -17 62 -5 70 20 14 44 -41 80
-73 48z m48 -33 c0 -25 -23 -35 -35 -15 -10 16 2 40 20 40 9 0 15 -9 15 -25z"/>
<path d="M1380 254 c-12 -14 -11 -19 10 -36 l25 -20 -23 5 c-15 4 -22 1 -19
-6 2 -7 15 -12 28 -12 33 0 38 37 7 54 l-23 12 23 -5 c15 -3 22 0 19 7 -6 19
-33 19 -47 1z"/>
<path d="M1607 264 c-14 -14 -6 -21 21 -18 26 4 26 3 2 -4 -18 -6 -25 -15 -25
-32 0 -21 5 -25 33 -27 33 -1 33 -1 30 40 -3 37 -6 42 -28 45 -14 2 -29 0 -33
-4z m38 -54 c-3 -5 -10 -10 -16 -10 -5 0 -9 5 -9 10 0 6 7 10 16 10 8 0 12 -4
9 -10z"/>
<path d="M1690 209 c0 -33 4 -59 10 -59 6 0 10 6 10 14 0 9 12 16 28 18 24 3
27 7 27 43 0 39 -1 40 -37 42 l-38 1 0 -59z m60 22 c0 -11 -5 -23 -11 -27 -15
-9 -33 12 -26 30 9 23 37 20 37 -3z"/>
<path d="M1790 225 c0 -25 5 -45 10 -45 6 0 10 20 10 45 0 25 -4 45 -10 45 -5
0 -10 -20 -10 -45z"/>
<path d="M1953 262 c-27 -17 -19 -70 12 -78 31 -8 55 10 55 40 0 38 -36 58
-67 38z m42 -37 c0 -11 -8 -21 -17 -23 -14 -3 -18 3 -18 23 0 20 4 26 18 23 9
-2 17 -12 17 -23z"/>
<path d="M2093 264 c-23 -10 -13 -21 15 -18 26 4 26 3 2 -4 -18 -6 -25 -15
-25 -32 0 -21 5 -26 33 -28 l33 -3 -3 43 c-2 35 -7 43 -23 45 -11 1 -26 -1
-32 -3z m37 -54 c0 -5 -7 -10 -15 -10 -8 0 -15 5 -15 10 0 6 7 10 15 10 8 0
15 -4 15 -10z"/>
<path d="M2302 258 c-20 -20 -15 -66 8 -73 37 -12 60 3 60 40 0 42 -40 61 -68
33z m48 -27 c0 -11 -5 -23 -11 -27 -15 -9 -33 12 -26 30 9 23 37 20 37 -3z"/>
<path d="M2503 264 c-24 -10 -13 -24 15 -19 l27 5 -28 -11 c-41 -16 -34 -53
11 -57 l33 -3 -3 43 c-2 35 -7 43 -23 45 -11 1 -26 -1 -32 -3z m37 -54 c0 -5
-7 -10 -15 -10 -8 0 -15 5 -15 10 0 6 7 10 15 10 8 0 15 -4 15 -10z"/>
<path d="M2590 254 c-12 -14 -11 -19 10 -36 l25 -20 -23 5 c-15 4 -22 1 -19
-6 2 -7 15 -12 28 -12 33 0 38 37 7 54 l-23 12 23 -5 c15 -3 22 0 19 7 -6 19
-33 19 -47 1z"/>
<path d="M2807 264 c-13 -14 -7 -21 16 -19 12 1 14 0 5 -2 -52 -13 -41 -62 13
-61 29 1 30 3 27 42 -3 35 -6 41 -28 44 -14 2 -29 0 -33 -4z m38 -54 c-3 -5
-10 -10 -16 -10 -5 0 -9 5 -9 10 0 6 7 10 16 10 8 0 12 -4 9 -10z"/>
<path d="M2890 224 c0 -24 5 -44 10 -44 6 0 10 11 10 24 0 14 7 31 15 40 20
20 19 24 -10 24 -23 0 -25 -4 -25 -44z"/>
<path d="M3032 258 c-7 -7 -12 -25 -12 -40 0 -21 6 -29 24 -34 26 -6 46 1 46
16 0 4 -8 6 -19 3 -10 -3 -22 0 -25 6 -5 7 4 11 23 11 19 0 31 5 31 13 0 18
-21 37 -40 37 -9 0 -21 -5 -28 -12z m35 -14 c-3 -3 -12 -4 -19 -1 -8 3 -5 6 6
6 11 1 17 -2 13 -5z"/>
<path d="M3120 254 c-12 -14 -11 -19 10 -36 l25 -20 -23 5 c-15 4 -22 1 -19
-6 2 -7 15 -12 28 -12 33 0 38 37 7 54 l-23 12 23 -5 c15 -3 22 0 19 7 -6 19
-33 19 -47 1z"/>
</g>
</svg>
